<?xml version="1.0" standalone="no"?>
<!DOCTYPE svg PUBLIC "-//W3C//DTD SVG 20010904//EN"
 "http://www.w3.org/TR/2001/REC-SVG-20010904/DTD/svg10.dtd">
<svg version="1.0" xmlns="http://www.w3.org/2000/svg"
 width="200.000000pt" height="200.000000pt" viewBox="0 0 200.000000 200.000000"
 preserveAspectRatio="xMidYMid meet">

<g transform="translate(0.000000,200.000000) scale(0.100000,-0.100000)"
fill="#000000" stroke="none">
<path d="M225 1625 l-25 -24 0 -589 c0 -572 1 -589 20 -609 11 -13 38 -24 62
-28 24 -3 370 -5 770 -3 l727 3 23 23 23 23 3 552 c2 303 0 571 -3 595 -4 24
-15 51 -28 62 -20 20 -37 20 -784 20 l-764 0 -24 -25z m1543 -102 l3 -73 -761
0 -760 0 0 68 c0 38 3 72 7 75 3 4 344 6 757 5 l751 -3 3 -72z m2 -608 l0
-485 -757 2 -758 3 -3 483 -2 482 760 0 760 0 0 -485z"/>
<path d="M300 1525 c0 -20 5 -25 25 -25 20 0 25 5 25 25 0 20 -5 25 -25 25
-20 0 -25 -5 -25 -25z"/>
<path d="M400 1525 c0 -20 5 -25 25 -25 20 0 25 5 25 25 0 20 -5 25 -25 25
-20 0 -25 -5 -25 -25z"/>
<path d="M500 1525 c0 -20 5 -25 25 -25 20 0 25 5 25 25 0 20 -5 25 -25 25
-20 0 -25 -5 -25 -25z"/>
<path d="M372 1078 l3 -173 173 -3 172 -2 0 175 0 175 -175 0 -175 0 2 -172z
m298 -3 l0 -125 -120 0 -120 0 0 125 0 125 120 0 120 0 0 -125z"/>
<path d="M820 1225 l0 -25 415 0 415 0 0 25 0 25 -415 0 -415 0 0 -25z"/>
<path d="M820 1075 l0 -25 415 0 415 0 0 25 0 25 -415 0 -415 0 0 -25z"/>
<path d="M820 925 l0 -25 415 0 415 0 0 25 0 25 -415 0 -415 0 0 -25z"/>
<path d="M370 775 l0 -25 640 0 640 0 0 25 0 25 -640 0 -640 0 0 -25z"/>
<path d="M370 625 l0 -25 640 0 640 0 0 25 0 25 -640 0 -640 0 0 -25z"/>
</g>
</svg>
