<?xml version="1.0" standalone="no"?>
<!DOCTYPE svg PUBLIC "-//W3C//DTD SVG 20010904//EN"
 "http://www.w3.org/TR/2001/REC-SVG-20010904/DTD/svg10.dtd">
<svg version="1.0" xmlns="http://www.w3.org/2000/svg"
 width="512.000000pt" height="512.000000pt" viewBox="0 0 512.000000 512.000000"
 preserveAspectRatio="xMidYMid meet">

<g transform="translate(0.000000,512.000000) scale(0.100000,-0.100000)"
fill="#000000" stroke="none">
<path d="M773 4008 c-61 -73 -190 -227 -287 -343 l-177 -210 3 -200 3 -200 32
-67 c50 -106 138 -179 266 -222 16 -5 17 -51 15 -818 l-3 -813 -158 -3 -158
-3 3 -72 3 -72 2245 0 2245 0 3 72 3 72 -158 3 -158 3 -3 813 -2 812 27 12
c105 43 137 62 178 103 26 25 61 76 78 113 l32 67 3 200 3 200 -207 245 c-113
135 -242 289 -287 343 l-81 97 -1676 0 -1676 0 -111 -132z m3453 -90 c33 -40
145 -174 248 -297 l188 -223 -4 -162 c-3 -151 -5 -164 -28 -203 -94 -157 -310
-162 -405 -9 -30 49 -30 51 -35 225 l-5 176 -72 3 -73 3 0 -157 c0 -94 -5
-173 -12 -198 -18 -59 -99 -138 -161 -155 -81 -23 -183 4 -233 61 -57 65 -59
72 -64 263 l-5 180 -72 3 -73 3 0 -155 c0 -132 -3 -163 -21 -210 -62 -168
-278 -207 -397 -72 -44 50 -52 89 -55 271 l-2 160 -72 3 c-40 2 -73 -1 -73 -5
-1 -4 -2 -80 -4 -168 -3 -187 -14 -224 -82 -283 -93 -82 -215 -82 -308 0 -68
59 -79 96 -82 283 -2 88 -3 164 -4 168 0 4 -33 7 -72 5 l-73 -3 -2 -160 c-3
-182 -11 -221 -55 -271 -91 -104 -240 -110 -339 -15 -66 64 -79 114 -79 303
l0 149 -72 -3 -73 -3 -5 -175 c-6 -197 -16 -233 -85 -286 -103 -78 -219 -71
-310 21 -67 66 -75 97 -75 289 l0 157 -72 -3 -73 -3 -5 -175 c-5 -167 -6 -177
-32 -221 -56 -96 -164 -138 -273 -108 -54 15 -139 100 -154 154 -6 22 -11 104
-11 182 l0 142 187 223 c102 123 213 256 247 296 l61 72 1605 0 1605 0 61 -72z
m-3175 -1049 c24 -23 73 -56 109 -73 58 -27 75 -31 155 -31 113 1 178 25 257
95 l56 50 43 -42 c117 -110 300 -138 443 -66 21 11 61 40 87 65 l49 46 50 -47
c28 -26 76 -59 108 -74 49 -22 71 -26 152 -26 83 -1 103 3 152 26 32 15 80 48
108 74 l51 47 47 -46 c26 -25 74 -58 107 -74 52 -23 73 -27 155 -27 85 0 102
3 161 31 37 17 85 49 108 72 l42 42 55 -50 c76 -70 145 -95 259 -96 80 0 97 4
157 32 36 17 85 50 107 72 l42 42 52 -45 c28 -25 80 -58 114 -73 l63 -27 0
-818 0 -818 -130 0 -130 0 0 720 0 720 -415 0 -415 0 -2 -692 c-1 -381 -2
-704 -2 -718 l-1 -25 -1232 -3 -1233 -2 0 820 c0 773 1 821 18 826 48 14 142
68 172 99 19 19 35 35 35 35 1 0 22 -19 46 -41z m2874 -1094 l0 -640 -265 0
-265 0 -3 629 c-1 347 0 636 2 643 4 11 57 13 268 11 l263 -3 0 -640z"/>
<path d="M1055 2558 c-3 -7 -4 -303 -3 -658 l3 -645 960 0 960 0 0 655 0 655
-958 3 c-761 2 -959 0 -962 -10z m1770 -648 l0 -505 -810 0 -810 0 -3 495 c-1
272 0 501 3 508 3 10 171 12 812 10 l808 -3 0 -505z"/>
</g>
</svg>
