<?xml version="1.0" standalone="no"?>
<!DOCTYPE svg PUBLIC "-//W3C//DTD SVG 20010904//EN"
 "http://www.w3.org/TR/2001/REC-SVG-20010904/DTD/svg10.dtd">
<svg version="1.0" xmlns="http://www.w3.org/2000/svg"
 width="512.000000pt" height="512.000000pt" viewBox="0 0 512.000000 512.000000"
 preserveAspectRatio="xMidYMid meet">

<g transform="translate(0.000000,512.000000) scale(0.100000,-0.100000)"
fill="#000000" stroke="none">
<path d="M3268 4427 c-82 -24 -156 -92 -174 -161 -8 -31 -41 -50 -269 -148
-642 -278 -1392 -492 -2060 -588 -164 -24 -215 -41 -259 -89 l-30 -31 -131 0
c-159 0 -210 -14 -270 -75 -73 -72 -77 -96 -73 -452 3 -294 4 -310 25 -348 12
-22 36 -54 55 -72 56 -54 97 -66 253 -71 137 -4 141 -5 173 -33 43 -38 81 -57
131 -65 23 -4 44 -10 46 -14 3 -4 93 -324 200 -711 107 -387 203 -721 212
-742 19 -44 80 -102 132 -125 31 -15 80 -17 357 -17 344 0 345 0 365 52 10 28
-7 80 -31 93 -10 6 -30 10 -43 10 -15 0 -26 7 -29 17 -3 10 -83 298 -178 641
-95 342 -171 625 -168 627 6 6 299 -72 500 -134 302 -93 659 -228 938 -355
134 -61 135 -62 158 -111 31 -66 67 -103 127 -131 47 -22 61 -24 230 -23 120
0 192 4 216 13 56 20 103 61 135 118 l29 53 3 1324 c3 1468 6 1388 -63 1468
-19 23 -56 52 -83 65 -43 21 -62 23 -212 25 -112 2 -180 -2 -212 -10z m379
-180 l28 -27 3 -1303 c2 -965 -1 -1309 -9 -1330 -22 -52 -39 -57 -212 -57
l-159 0 -29 29 -29 29 0 962 c0 824 -2 965 -15 989 -23 46 -75 55 -116 22
l-24 -19 -5 -896 -5 -895 -131 58 c-622 277 -1339 490 -2039 605 -82 14 -175
28 -205 32 -41 5 -62 14 -82 35 l-28 27 0 392 c0 248 4 398 10 410 17 31 38
38 216 65 671 103 1375 301 1989 560 88 37 176 75 195 85 84 42 80 46 80 -84
0 -63 3 -122 6 -131 7 -18 55 -45 79 -45 9 0 30 13 46 29 l29 29 0 197 c0 121
4 204 11 216 21 40 64 49 221 47 146 -3 148 -3 175 -31z m-3219 -1344 l-3
-348 -77 -3 c-43 -2 -96 2 -118 8 -68 18 -70 28 -70 350 l0 282 29 29 c29 28
32 29 135 29 l106 0 -2 -347z m702 -692 l185 -36 177 -635 c97 -349 180 -650
184 -667 l6 -33 -173 0 c-205 0 -244 8 -265 53 -8 18 -95 325 -195 682 -99
358 -182 658 -185 668 -7 21 -6 21 266 -32z"/>
<path d="M4700 3808 c-47 -24 -68 -41 -74 -60 -13 -37 2 -79 36 -97 24 -14 32
-14 84 4 79 27 114 58 114 100 0 18 -8 42 -17 54 -30 35 -70 35 -143 -1z"/>
<path d="M4281 3630 c-152 -66 -175 -84 -173 -132 1 -37 39 -78 73 -78 33 0
302 119 322 141 39 48 1 130 -60 128 -15 0 -88 -27 -162 -59z"/>
<path d="M4132 2960 c-35 -33 -33 -84 4 -117 l25 -23 444 0 c304 0 452 3 468
11 49 22 61 86 22 124 l-24 25 -459 0 c-447 0 -459 0 -480 -20z"/>
<path d="M4130 2360 c-29 -29 -30 -83 -2 -112 15 -14 242 -115 299 -132 42
-13 92 28 93 76 0 44 -38 72 -178 132 -144 61 -181 67 -212 36z"/>
<path d="M4642 2137 c-22 -23 -28 -60 -15 -92 8 -23 120 -75 159 -75 61 0 98
81 57 127 -23 26 -113 63 -151 63 -17 0 -37 -9 -50 -23z"/>
</g>
</svg>
