<?xml version="1.0" standalone="no"?>
<!DOCTYPE svg PUBLIC "-//W3C//DTD SVG 20010904//EN"
 "http://www.w3.org/TR/2001/REC-SVG-20010904/DTD/svg10.dtd">
<svg version="1.0" xmlns="http://www.w3.org/2000/svg"
 width="1770.000000pt" height="1920.000000pt" viewBox="0 0 1770.000000 1920.000000"
 preserveAspectRatio="xMidYMid meet">

<g transform="translate(0.000000,1920.000000) scale(0.100000,-0.100000)"
fill="#000000" stroke="none">
<path d="M9379 19196 c-3 -3 -52 -11 -110 -16 -733 -73 -1447 -384 -2119 -924
-108 -87 -322 -304 -420 -426 -361 -451 -601 -1013 -764 -1790 -49 -232 -97
-519 -156 -925 -28 -192 -75 -507 -105 -700 -96 -626 -127 -919 -145 -1381
-14 -389 7 -804 60 -1146 11 -70 20 -128 20 -130 0 -2 45 41 101 95 110 106
252 217 367 287 l73 45 -6 50 c-12 111 -25 391 -25 565 0 440 40 885 135 1505
24 160 63 416 85 570 99 682 149 963 230 1290 217 880 566 1413 1205 1842 465
313 918 491 1441 570 167 25 569 25 739 -1 299 -44 738 -176 1000 -301 710
-338 1223 -917 1567 -1770 145 -360 201 -640 201 -1005 -1 -357 -59 -689 -194
-1106 -98 -303 -187 -529 -416 -1054 -85 -195 -222 -512 -304 -705 -162 -379
-404 -877 -546 -1125 -585 -1020 -1209 -1593 -1978 -1814 l-120 -34 -128 -317
c-70 -175 -126 -319 -125 -321 6 -5 310 46 396 66 503 119 1001 382 1400 742
30 26 58 48 63 48 5 0 9 -155 9 -380 l0 -379 -462 -378 c-255 -208 -636 -520
-848 -693 -533 -434 -541 -441 -573 -477 -25 -28 -36 -33 -75 -33 -43 0 -51 4
-102 54 -82 80 -293 247 -301 238 -6 -6 -100 -231 -519 -1244 -43 -103 -74
-185 -70 -183 5 3 160 136 346 295 185 160 341 290 345 290 5 0 9 -953 9
-2118 l0 -2119 31 -61 c48 -97 128 -151 235 -160 126 -10 235 53 291 166 l28
57 3 2113 c1 1306 6 2112 12 2112 5 0 154 -125 332 -278 1157 -996 1115 -961
1175 -978 101 -29 213 -7 290 59 14 12 76 90 138 172 597 801 1576 2105 1580
2105 3 0 85 -40 183 -89 582 -291 869 -421 1138 -516 881 -311 1561 -665 2095
-1092 159 -127 415 -380 521 -513 294 -372 450 -740 487 -1150 7 -76 11 -851
12 -2290 0 -2033 1 -2178 17 -2217 26 -63 85 -128 139 -153 26 -12 56 -26 65
-31 30 -15 115 -10 172 11 75 29 137 86 170 159 l26 59 -2 2294 -3 2293 -22
120 c-82 446 -240 803 -523 1180 -574 764 -1617 1430 -2975 1898 -193 67 -352
138 -867 390 l-277 135 9 33 c30 104 1 210 -79 288 -51 49 -120 87 -701 382
-355 180 -667 333 -694 340 -27 6 -71 9 -102 5 l-54 -6 0 495 0 494 69 98
c153 218 337 527 497 838 140 272 237 482 429 930 89 209 204 475 255 590 415
945 581 1445 661 2000 27 190 37 566 20 752 -39 409 -157 801 -385 1278 -294
612 -728 1130 -1236 1474 -296 200 -553 326 -905 441 -313 102 -566 163 -816
196 -116 15 -609 31 -620 20z m2538 -10447 c206 -105 373 -195 371 -200 -2 -5
-354 -477 -783 -1050 -429 -574 -783 -1047 -786 -1052 -4 -5 -217 173 -475
395 -258 221 -504 432 -546 468 l-77 65 22 21 c12 12 267 221 567 466 992 808
1154 941 1235 1009 44 37 84 68 89 68 5 1 177 -85 383 -190z"/>
<path d="M2982 14610 c-400 -57 -754 -305 -917 -644 -74 -155 -100 -247 -100
-356 0 -109 15 -150 77 -212 52 -52 112 -80 183 -85 75 -6 129 8 191 50 64 42
98 96 124 193 50 192 150 321 311 402 181 92 378 95 562 10 219 -101 340 -284
339 -512 0 -138 -46 -250 -151 -369 -249 -284 -350 -634 -271 -943 28 -108
322 -806 360 -854 19 -25 56 -52 98 -72 57 -28 77 -33 137 -33 89 1 148 28
209 96 98 109 100 208 8 424 -277 649 -265 613 -241 727 17 80 61 166 128 245
93 111 144 183 188 269 227 435 143 970 -205 1313 -174 172 -389 285 -637 336
-95 19 -304 28 -393 15z"/>
<path d="M7130 11844 c-200 -19 -356 -57 -510 -123 -258 -111 -496 -307 -648
-533 -96 -144 -110 -173 -357 -778 -24 -58 -95 -232 -159 -387 -277 -676 -357
-869 -574 -1398 -126 -308 -354 -864 -506 -1235 -153 -371 -292 -711 -311
-755 -18 -44 -69 -168 -113 -275 -343 -836 -555 -1352 -774 -1880 l-163 -395
0 -90 c0 -103 17 -144 82 -207 114 -110 302 -109 411 3 41 42 55 67 127 244
31 77 144 352 250 610 202 493 535 1304 957 2330 137 336 281 684 318 775 68
165 410 998 862 2100 356 868 370 900 413 965 98 148 277 297 437 363 130 54
196 66 363 66 137 0 157 -3 235 -28 155 -51 264 -119 372 -229 151 -154 240
-347 258 -560 8 -102 -2 -239 -25 -326 -14 -57 -325 -814 -1017 -2481 -61
-146 -157 -380 -215 -520 -58 -140 -154 -372 -213 -515 -60 -143 -151 -363
-203 -490 -52 -126 -149 -360 -215 -520 -66 -159 -191 -461 -277 -670 -289
-700 -376 -910 -410 -990 -18 -44 -87 -210 -153 -370 -261 -631 -439 -1062
-542 -1310 -59 -143 -152 -366 -205 -495 -53 -129 -131 -316 -172 -415 -41
-99 -79 -203 -84 -231 -16 -88 12 -176 80 -247 54 -58 104 -80 192 -85 67 -4
83 -1 136 23 68 30 111 70 141 130 12 22 129 303 262 625 133 322 306 740 385
930 79 190 322 777 540 1305 218 528 434 1050 480 1160 46 110 262 632 480
1160 218 528 434 1050 480 1160 46 110 235 567 420 1015 335 812 375 906 540
1305 105 252 128 317 154 439 114 526 -54 1070 -444 1434 -242 226 -536 356
-884 391 -100 11 -129 11 -201 5z"/>
<path d="M4301 10638 c-179 -27 -285 -214 -224 -394 23 -66 100 -143 171 -168
76 -26 183 -19 245 17 200 117 201 396 1 513 -52 31 -122 42 -193 32z"/>
<path d="M3945 8189 c-136 -67 -266 -122 -350 -149 -209 -68 -616 -226 -865
-338 -1533 -684 -2468 -1613 -2674 -2657 -53 -270 -51 -152 -51 -2565 l0
-2255 28 -57 c49 -100 157 -168 267 -168 103 0 226 83 271 183 l24 52 5 2285
6 2285 26 120 c97 429 314 803 677 1165 520 518 1290 966 2260 1315 96 35 178
69 182 77 11 19 309 746 309 753 0 10 -14 4 -115 -46z"/>
</g>
</svg>
